<?xml version="1.0" encoding="UTF-8" standalone="no"?>
<!DOCTYPE svg PUBLIC "-//W3C//DTD SVG 1.1//EN"
 "http://www.w3.org/Graphics/SVG/1.1/DTD/svg11.dtd">
<!-- Generated by graphviz version 2.38.0 (20140413.2041)
 -->
<!-- Title: pipeline Pages: 1 -->
<svg width="409pt" height="712pt"
 viewBox="0.00 0.00 408.50 712.00" xmlns="http://www.w3.org/2000/svg" xmlns:xlink="http://www.w3.org/1999/xlink">
<g id="graph0" class="graph" transform="scale(1 1) rotate(0) translate(4 708)">
<title>pipeline</title>
<polygon fill="white" stroke="none" points="-4,4 -4,-708 404.5,-708 404.5,4 -4,4"/>
<!-- Program -->
<g id="node1" class="node"><title>Program</title>
<ellipse fill="none" stroke="black" cx="189.5" cy="-686" rx="41.6928" ry="18"/>
<text text-anchor="middle" x="189.5" y="-682.3" font-family="Times,serif" font-size="14.00">Program</text>
</g>
<!-- VertexShader -->
<g id="node2" class="node"><title>VertexShader</title>
<polygon fill="none" stroke="black" points="129,-617 38,-617 38,-581 129,-581 129,-617"/>
<text text-anchor="middle" x="83.5" y="-595.3" font-family="Times,serif" font-size="14.00">VertexShader</text>
</g>
<!-- Program&#45;&gt;VertexShader -->
<g id="edge1" class="edge"><title>Program&#45;&gt;VertexShader</title>
<path fill="none" stroke="black" d="M148.647,-682.497C103.12,-678.754 33.7435,-669.882 17.5,-650 8.62167,-639.133 16.1108,-629.284 28.776,-621.255"/>
<polygon fill="black" stroke="black" points="30.7065,-624.186 37.7263,-616.251 27.29,-618.076 30.7065,-624.186"/>
<text text-anchor="middle" x="92.5" y="-638.8" font-family="Times,serif" font-size="14.00">Triangle,TriangleAttributes</text>
</g>
<!-- Program&#45;&gt;VertexShader -->
<g id="edge9" class="edge"><title>Program&#45;&gt;VertexShader</title>
<path fill="none" stroke="black" d="M185.455,-667.818C182.177,-657.179 176.574,-643.897 167.5,-635 159.298,-626.959 148.98,-620.662 138.409,-615.767"/>
<polygon fill="black" stroke="black" points="139.674,-612.502 129.102,-611.818 136.94,-618.946 139.674,-612.502"/>
<text text-anchor="middle" x="223.5" y="-638.8" font-family="Times,serif" font-size="14.00">VertexUniforms</text>
</g>
<!-- FragmentShader -->
<g id="node8" class="node"><title>FragmentShader</title>
<polygon fill="none" stroke="black" points="242,-123 135,-123 135,-87 242,-87 242,-123"/>
<text text-anchor="middle" x="188.5" y="-101.3" font-family="Times,serif" font-size="14.00">FragmentShader</text>
</g>
<!-- Program&#45;&gt;FragmentShader -->
<g id="edge10" class="edge"><title>Program&#45;&gt;FragmentShader</title>
<path fill="none" stroke="black" d="M225.221,-676.466C241.32,-671.107 259.574,-662.728 272.5,-650 289.799,-632.966 294.5,-624.278 294.5,-600 294.5,-600 294.5,-600 294.5,-191 294.5,-167.923 296.063,-158.039 280.5,-141 272.656,-132.412 262.48,-125.916 251.766,-121.008"/>
<polygon fill="black" stroke="black" points="252.837,-117.664 242.258,-117.09 250.17,-124.136 252.837,-117.664"/>
<text text-anchor="middle" x="347.5" y="-391.8" font-family="Times,serif" font-size="14.00">FragmentUniforms</text>
</g>
<!-- TesselationShader -->
<g id="node3" class="node"><title>TesselationShader</title>
<polygon fill="none" stroke="grey" stroke-dasharray="1,5" points="141.5,-530 25.5,-530 25.5,-494 141.5,-494 141.5,-530"/>
<text text-anchor="middle" x="83.5" y="-508.3" font-family="Times,serif" font-size="14.00">TesselationShader</text>
</g>
<!-- VertexShader&#45;&gt;TesselationShader -->
<g id="edge2" class="edge"><title>VertexShader&#45;&gt;TesselationShader</title>
<path fill="none" stroke="black" d="M83.5,-580.799C83.5,-569.163 83.5,-553.548 83.5,-540.237"/>
<polygon fill="black" stroke="black" points="87.0001,-540.175 83.5,-530.175 80.0001,-540.175 87.0001,-540.175"/>
<text text-anchor="middle" x="181" y="-551.8" font-family="Times,serif" font-size="14.00">TransformedTriangle,VertexOutput</text>
</g>
<!-- GeometryShader -->
<g id="node4" class="node"><title>GeometryShader</title>
<polygon fill="none" stroke="grey" stroke-dasharray="1,5" points="138,-457 29,-457 29,-421 138,-421 138,-457"/>
<text text-anchor="middle" x="83.5" y="-435.3" font-family="Times,serif" font-size="14.00">GeometryShader</text>
</g>
<!-- TesselationShader&#45;&gt;GeometryShader -->
<g id="edge3" class="edge"><title>TesselationShader&#45;&gt;GeometryShader</title>
<path fill="none" stroke="black" d="M83.5,-493.813C83.5,-485.789 83.5,-476.047 83.5,-467.069"/>
<polygon fill="black" stroke="black" points="87.0001,-467.029 83.5,-457.029 80.0001,-467.029 87.0001,-467.029"/>
</g>
<!-- VertexPostProcesingShader -->
<g id="node5" class="node"><title>VertexPostProcesingShader</title>
<polygon fill="none" stroke="grey" stroke-dasharray="1,5" points="167,-370 1.42109e-14,-370 1.42109e-14,-334 167,-334 167,-370"/>
<text text-anchor="middle" x="83.5" y="-348.3" font-family="Times,serif" font-size="14.00">VertexPostProcesingShader</text>
</g>
<!-- GeometryShader&#45;&gt;VertexPostProcesingShader -->
<g id="edge4" class="edge"><title>GeometryShader&#45;&gt;VertexPostProcesingShader</title>
<path fill="none" stroke="black" d="M83.5,-420.799C83.5,-409.163 83.5,-393.548 83.5,-380.237"/>
<polygon fill="black" stroke="black" points="87.0001,-380.175 83.5,-370.175 80.0001,-380.175 87.0001,-380.175"/>
</g>
<!-- PrimitiveAssemblyShader -->
<g id="node6" class="node"><title>PrimitiveAssemblyShader</title>
<polygon fill="none" stroke="grey" stroke-dasharray="1,5" points="163.5,-297 3.5,-297 3.5,-261 163.5,-261 163.5,-297"/>
<text text-anchor="middle" x="83.5" y="-275.3" font-family="Times,serif" font-size="14.00">PrimitiveAssemblyShader</text>
</g>
<!-- VertexPostProcesingShader&#45;&gt;PrimitiveAssemblyShader -->
<g id="edge5" class="edge"><title>VertexPostProcesingShader&#45;&gt;PrimitiveAssemblyShader</title>
<path fill="none" stroke="black" d="M83.5,-333.813C83.5,-325.789 83.5,-316.047 83.5,-307.069"/>
<polygon fill="black" stroke="black" points="87.0001,-307.029 83.5,-297.029 80.0001,-307.029 87.0001,-307.029"/>
</g>
<!-- Rasterization -->
<g id="node7" class="node"><title>Rasterization</title>
<polygon fill="none" stroke="black" points="127.5,-210 39.5,-210 39.5,-174 127.5,-174 127.5,-210"/>
<text text-anchor="middle" x="83.5" y="-188.3" font-family="Times,serif" font-size="14.00">Rasterization</text>
</g>
<!-- PrimitiveAssemblyShader&#45;&gt;Rasterization -->
<g id="edge6" class="edge"><title>PrimitiveAssemblyShader&#45;&gt;Rasterization</title>
<path fill="none" stroke="black" d="M83.5,-260.799C83.5,-249.163 83.5,-233.548 83.5,-220.237"/>
<polygon fill="black" stroke="black" points="87.0001,-220.175 83.5,-210.175 80.0001,-220.175 87.0001,-220.175"/>
<text text-anchor="middle" x="181" y="-231.8" font-family="Times,serif" font-size="14.00">TransformedTriangle,VertexOutput</text>
</g>
<!-- Rasterization&#45;&gt;FragmentShader -->
<g id="edge7" class="edge"><title>Rasterization&#45;&gt;FragmentShader</title>
<path fill="none" stroke="black" d="M79.2041,-173.675C77.6656,-163.244 77.7195,-150.24 84.5,-141 94.3004,-127.645 109.442,-119.325 125.165,-114.159"/>
<polygon fill="black" stroke="black" points="126.345,-117.462 134.987,-111.334 124.41,-110.734 126.345,-117.462"/>
<text text-anchor="middle" x="182.5" y="-144.8" font-family="Times,serif" font-size="14.00">Fragment,InterpolatedVertexOutput</text>
</g>
<!-- Screen -->
<g id="node9" class="node"><title>Screen</title>
<ellipse fill="none" stroke="black" cx="188.5" cy="-18" rx="34.394" ry="18"/>
<text text-anchor="middle" x="188.5" y="-14.3" font-family="Times,serif" font-size="14.00">Screen</text>
</g>
<!-- FragmentShader&#45;&gt;Screen -->
<g id="edge8" class="edge"><title>FragmentShader&#45;&gt;Screen</title>
<path fill="none" stroke="black" d="M188.5,-86.799C188.5,-75.1626 188.5,-59.5479 188.5,-46.2368"/>
<polygon fill="black" stroke="black" points="192,-46.1754 188.5,-36.1754 185,-46.1755 192,-46.1754"/>
<text text-anchor="middle" x="219" y="-57.8" font-family="Times,serif" font-size="14.00">PixelValue</text>
</g>
</g>
</svg>
